<svg width="17" height="17" viewBox="0 0 17 17" fill="none" xmlns="http://www.w3.org/2000/svg">
<path d="M8.5 17C13.1944 17 17 13.1944 17 8.5C17 3.80558 13.1944 0 8.5 0C3.80558 0 0 3.80558 0 8.5C0 13.1944 3.80558 17 8.5 17Z" fill="#FFD15C"/>
<path d="M8.50002 14.9458C12.0599 14.9458 14.9458 12.0599 14.9458 8.50002C14.9458 4.94009 12.0599 2.0542 8.50002 2.0542C4.94009 2.0542 2.0542 4.94009 2.0542 8.50002C2.0542 12.0599 4.94009 14.9458 8.50002 14.9458Z" fill="#F8B64C"/>
<path d="M8.07493 12.1833C6.94161 12.0771 6.12701 11.6521 5.56036 11.0854L6.41036 9.91667C6.79993 10.3417 7.40204 10.6958 8.11036 10.8375V9.17292C7.01243 8.8896 5.80829 8.49999 5.80829 7.04792C5.80829 5.98542 6.65829 5.0646 8.11036 4.88749V3.89581H9.10204V4.92289C9.95204 5.02914 10.6958 5.34789 11.2979 5.87914L10.4479 7.01246C10.0583 6.65828 9.59786 6.44578 9.10204 6.30414V7.79163C10.2 8.07496 11.4395 8.49996 11.4395 9.95206C11.4395 11.1208 10.6604 12.0416 9.10204 12.2187V13.175H8.11036V12.1833H8.07493V12.1833ZM8.07493 7.50835V6.23335C7.61451 6.30417 7.33118 6.5521 7.33118 6.90627C7.36661 7.1896 7.64993 7.3667 8.07493 7.50835ZM9.102 9.38545V10.8021C9.63325 10.6959 9.91658 10.3771 9.91658 10.0584C9.88118 9.7042 9.56243 9.5271 9.102 9.38545Z" fill="#FFD15C"/>
<path d="M8.67706 0.424988H8.32288V1.62917H8.67706V0.424988Z" fill="#F8B64C"/>
<path d="M8.67706 15.3708H8.32288V16.575H8.67706V15.3708Z" fill="#F8B64C"/>
<path d="M6.31985 1.98758L5.90802 0.856018L5.5752 0.977147L5.98703 2.10871L6.31985 1.98758Z" fill="#F8B64C"/>
<path d="M11.425 16.0219L11.0131 14.8903L10.6803 15.0114L11.0921 16.143L11.425 16.0219Z" fill="#F8B64C"/>
<path d="M4.22568 3.10658L3.45166 2.1842L3.18039 2.41185L3.95441 3.33422L4.22568 3.10658Z" fill="#F8B64C"/>
<path d="M13.7958 14.5603L13.0218 13.6379L12.7505 13.8656L13.5245 14.788L13.7958 14.5603Z" fill="#F8B64C"/>
<path d="M2.63648 4.8948L1.59369 4.29272L1.41662 4.59941L2.45941 5.20149L2.63648 4.8948Z" fill="#F8B64C"/>
<path d="M15.5548 12.3812L14.512 11.7791L14.335 12.0858L15.3777 12.6879L15.5548 12.3812Z" fill="#F8B64C"/>
<path d="M1.75094 7.14465L0.565063 6.93549L0.503543 7.28428L1.68942 7.49345L1.75094 7.14465Z" fill="#F8B64C"/>
<path d="M16.4629 9.70855L15.277 9.49939L15.2155 9.84818L16.4014 10.0573L16.4629 9.70855Z" fill="#F8B64C"/>
<path d="M1.68893 9.50818L0.503052 9.71735L0.564572 10.0661L1.75045 9.85697L1.68893 9.50818Z" fill="#F8B64C"/>
<path d="M16.3985 6.94226L15.2126 7.15143L15.2742 7.50022L16.46 7.29106L16.3985 6.94226Z" fill="#F8B64C"/>
<path d="M2.45893 11.7971L1.41614 12.3992L1.59321 12.7059L2.636 12.1038L2.45893 11.7971Z" fill="#F8B64C"/>
<path d="M15.3741 4.31065L14.3314 4.91272L14.5084 5.21941L15.5512 4.61734L15.3741 4.31065Z" fill="#F8B64C"/>
<path d="M3.95487 13.6658L3.18085 14.5882L3.45212 14.8158L4.22615 13.8935L3.95487 13.6658Z" fill="#F8B64C"/>
<path d="M13.5249 2.2105L12.7509 3.13287L13.0222 3.36052L13.7962 2.43814L13.5249 2.2105Z" fill="#F8B64C"/>
<path d="M5.98714 14.8922L5.57532 16.0238L5.90814 16.1449L6.31996 15.0134L5.98714 14.8922Z" fill="#F8B64C"/>
<path d="M11.0922 0.856288L10.6804 1.98785L11.0132 2.10898L11.4251 0.977417L11.0922 0.856288Z" fill="#F8B64C"/>
<path opacity="0.1" d="M2.76252 9.20834C2.76252 5.6667 5.6667 2.76252 9.20834 2.76252C10.8021 2.76252 12.2542 3.3292 13.3875 4.32084C12.2188 2.93959 10.4479 2.0542 8.50002 2.0542C4.95834 2.0542 2.0542 4.95834 2.0542 8.50002C2.0542 10.448 2.93963 12.2188 4.32088 13.3875C3.36459 12.2542 2.76252 10.8021 2.76252 9.20834Z" fill="#231F20"/>
</svg>
